PathFileType	4	(X/Y/Z)	C:/Users/beibeiliu/ov580/test_trc/User2\sequence.39.1_training_dense_left.trc
DataRate	CameraRate	NumFrames	NumMarkers	Units	OrigDataRate	OrigDataStartFrame	OrigNumFrames
120	120	15	19	mm	120	1	89
Frame#	Time	ThumbCMC			ThumbMCP			ThumbIP			ThumbTip			IndexMCP			IndexPIP			IndexTip			MiddleMCP			MiddlePIP			MiddleTip			RingMCP			RingPIP			RingTip			PinkyMCP			PinkyPIP			PinkyTip			BackHand1			BackHand2			BackHand3	
		X0	Y0	Z0	X1	Y1	Z1	X2	Y2	Z2	X3	Y3	Z3	X4	Y4	Z4	X5	Y5	Z5	X6	Y6	Z6	X7	Y7	Z7	X8	Y8	Z8	X9	Y9	Z9	X10	Y10	Z10	X11	Y11	Z11	X12	Y12	Z12	X13	Y13	Z13	X14	Y14	Z14	X15	Y15	Z15	X16	Y16	Z16	X17	Y17	Z17	X18	Y18	Z18	
0	0	-177.916	28.0543	-16.8741	-159.634	43.8004	-41.6803	-139.994	48.7597	-73.1119	-122.135	36.7441	-96.0915	-146.061	9.14783	-92.7375	-115.209	15.8113	-84.7832	-131.144	20.0131	-48.4106	-135.582	-9.38112	-91.7631	-105.959	-2.34531	-72.3548	-131.244	-0.0198786	-40.348	-125.516	-25.8554	-85.3449	-103.694	-17.3876	-68.0864	-128.112	-14.479	-39.8948	-123.532	-46.5811	-71.9737	-104.022	-31.558	-54.1756	-128.292	-24.1872	-31.8628	-181.588	-39.1411	-52.1458	-196.801	-40.751	-14.8536	-196.941	-5.92459	-35.7192	
1	0.00833333	-177.444	24.2735	-19.2589	-163.832	41.3748	-45.0396	-146.038	41.1752	-74.1393	-128.608	34.6961	-98.5057	-144.572	6.65485	-93.4042	-113.806	12.4196	-81.1963	-132.668	16.0519	-48.4111	-132.975	-10.4935	-92.4414	-105.93	-3.39192	-74.934	-130.823	-0.977983	-40.0751	-125.501	-32.7975	-84.6675	-104.248	-17.9647	-67.8559	-132.641	-15.3615	-38.7906	-127.157	-47.8511	-70.6139	-103.905	-30.2138	-49.8627	-126.261	-25.8989	-29.2757	-180.701	-43.3558	-48.0759	-196.427	-41.6224	-17.5954	-195.421	-6.91595	-37.2895	
2	0.0166667	-177.897	23.1188	-17.6666	-166.711	38.804	-43.051	-150.048	42.1425	-80.1721	-135.593	35.8897	-97.0803	-142.048	11.2864	-95.6866	-115.182	11.7691	-84.3709	-128.348	18.5743	-51.3128	-135.963	-14.3643	-92.436	-105.976	-4.14056	-75.2857	-127.234	1.38823	-41.6806	-128.944	-29.4273	-85.6119	-104.602	-17.4992	-64.997	-130.153	-16.5559	-39.5556	-125.003	-49.5738	-72.1991	-103.014	-31.9932	-52.2444	-126.298	-26.6099	-32.4066	-180.588	-45.1522	-48.8313	-194.46	-41.7001	-17.4577	-195.546	-9.62228	-34.6697	
3	0.025	-179.758	25.7336	-22.5026	-168.881	37.4006	-45.7113	-154.475	42.4741	-78.2452	-140.19	39.7296	-98.0375	-144.291	9.23581	-96.2261	-114.542	16.149	-85.2022	-125.484	13.2064	-53.9108	-139.841	-11.7214	-94.2981	-105.954	-4.39047	-77.8708	-124.518	-1.47766	-43.1636	-128.919	-28.2287	-88.7104	-104.226	-19.2667	-70.2362	-123.245	-13.5715	-43.3523	-130.635	-46.2763	-73.5268	-104.291	-29.6874	-59.6951	-122.8	-24.9891	-33.0164	-180.207	-42.3256	-51.5263	-194.816	-44.8979	-18.9443	-196.189	-7.4848	-37.9311	
4	0.0333333	-180.666	23.4936	-18.0743	-171.75	40.246	-47.0944	-158.366	49.2921	-77.3644	-143.708	45.588	-100.767	-152.283	13.0601	-98.1671	-119.477	14.9633	-96.7179	-119.789	19.173	-59.8441	-140.933	-7.62773	-101.822	-108.291	-1.62393	-86.2142	-116.066	0.975551	-51.0474	-134.117	-32.4811	-91.8118	-106.154	-18.522	-79.4019	-121.672	-15.1849	-47.0818	-132.488	-50.6573	-78.1843	-107.767	-32.3193	-71.3089	-117.304	-24.6454	-40.0297	-184.571	-41.3889	-51.8878	-198.722	-37.6217	-21.5496	-197.051	-6.05747	-38.0283	
5	0.0416667	-182.745	26.2197	-21.6688	-174.4	43.1167	-44.6545	-160.582	50.8123	-77.9287	-146.055	52.3292	-99.863	-158.833	15.8046	-99.0023	-123.198	12.9383	-101.88	-113.909	19.6574	-70.5818	-149.993	-10.252	-105.415	-115.405	-3.15337	-104.373	-108.563	-1.18609	-65.3385	-144.757	-33.115	-97.6646	-112.354	-23.7098	-95.2564	-111.395	-15.6239	-62.6987	-144.757	-49.3588	-82.3121	-116.066	-37.5768	-86.9321	-111.156	-26.8401	-55.7022	-189.233	-35.2419	-48.1849	-201.249	-37.1956	-19.6042	-200.362	0.0381938	-36.7408	
6	0.05	-185.332	31.1944	-20.78	-175.7	49.4059	-43.9926	-160.38	56.9706	-70.6033	-147.138	57.6781	-94.5471	-159.881	14.4216	-102.581	-132.319	18.511	-110.671	-108.497	17.4313	-84.0938	-162.391	-10.4107	-110.128	-132.012	-4.91782	-122.889	-101.487	0.124195	-93.4644	-161.673	-28.2228	-99.9813	-131.33	-26.5803	-115.083	-107.739	-12.9994	-87.0172	-155.772	-52.0738	-83.6913	-125.517	-43.1227	-99.8145	-107.069	-29.4463	-79.5799	-190.821	-31.0552	-46.8165	-204.801	-36.0906	-18.1505	-204.242	-0.552479	-35.5298	
7	0.0583333	-186.385	32.6207	-14.5284	-174.47	52.3016	-37.6366	-159.737	63.9932	-71.2746	-145.132	66.1559	-91.8633	-163.615	20.4372	-101.593	-131.183	23.0705	-111.443	-105.113	17.1397	-96.029	-174.186	-4.82495	-111.235	-149.312	-3.31829	-133.797	-107.752	2.5286	-128.741	-173.493	-26.4479	-101.848	-149.448	-30.443	-125.66	-116.747	-20.9322	-120.967	-164.533	-51.5431	-87.1306	-142.342	-48.7515	-107.846	-110.07	-35.9717	-104.437	-194.477	-33.9842	-47.0844	-207.41	-33.7751	-19.9917	-207.078	4.99286	-35.5283	
8	0.0666667	-184.872	32.8264	-15.4155	-172.795	51.3709	-37.8066	-158.279	61.4975	-65.8178	-144.171	64.876	-91.1499	-166.331	24.2347	-97.7202	-133.338	26.0148	-111.971	-101.424	24.5587	-102.612	-181.813	-1.21132	-106.71	-160.646	-1.52782	-139.593	-129.811	2.05529	-154.893	-177.659	-27.7946	-102.438	-160.158	-30.8884	-127.967	-127.484	-21.509	-140.191	-166.538	-51.9582	-82.1864	-146.925	-51.8762	-106.829	-116.777	-46.2583	-117.704	-196.251	-30.0591	-47.5044	-209.231	-33.6016	-15.5767	-206.186	4.28839	-32.1432	
9	0.075	-185.914	30.1681	-13.102	-173.586	54.2793	-36.8013	-159.497	66.0878	-63.9136	-144.314	65.4985	-85.35	-167.273	24.685	-97.3097	-142.966	24.7225	-112.959	-109.587	24.4593	-116.622	-183.179	-0.208404	-107.289	-170.187	2.4964	-136.941	-149.211	3.14145	-162.78	-174.281	-26.7331	-102.456	-158.326	-34.6397	-124.265	-130.06	-28.0097	-142.946	-162.001	-48.9662	-80.0244	-137.074	-53.856	-101.826	-113.276	-48.6559	-113.589	-197.181	-34.1236	-45.6907	-209.399	-34.0409	-17.9673	-207.818	4.06166	-30.2755	
10	0.0833333	-188.228	31.9451	-15.6854	-175.222	51.3324	-36.552	-159.883	63.6623	-65.6498	-145.737	69.0392	-88.1273	-169.981	20.025	-98.9335	-149.686	25.962	-117.352	-119.714	25.0732	-131.747	-180.593	-3.6223	-108.409	-168.526	-1.01099	-134.358	-151.255	-3.399	-162.837	-164.879	-34.4962	-97.8908	-145.772	-34.9262	-118.965	-116.45	-27.7522	-136.189	-154.791	-49.6542	-77.4221	-128.548	-51.8786	-93.8947	-104.95	-47.5883	-103.993	-196.448	-35.5241	-44.7367	-207.699	-34.3876	-17.7687	-208.775	0.518283	-31.8108	
11	0.0916667	-187.765	28.2422	-13.6242	-176.655	53.3835	-35.9742	-161.79	65.7196	-64.9312	-146.787	66.9641	-85.5571	-174.53	18.9685	-100.424	-158.259	23.5794	-123.899	-139.794	23.544	-142.484	-174.525	-6.43169	-105.244	-156.311	-6.01031	-134.06	-132.933	-4.30113	-159.686	-156.817	-34.1901	-93.3922	-132.395	-31.339	-110.334	-102.14	-27.6076	-118.525	-147.392	-49.8424	-79.1357	-125.222	-50.04	-87.6238	-97.3451	-49.2716	-98.118	-195.907	-37.0147	-46.9067	-208.327	-37.975	-15.9389	-206.44	2.24417	-33.5772	
12	0.1	-187.882	27.7466	-18.2566	-174.71	47.2507	-37.1181	-160.801	65.5015	-65.399	-147.415	70.4485	-87.0218	-176.21	19.7421	-101.538	-164.085	25.253	-124.709	-148.502	24.7734	-145.838	-164.919	-4.18851	-105.51	-139.115	-5.01108	-128.069	-112.741	-5.37358	-142.956	-150.762	-35.1011	-92.7273	-122.725	-28.4111	-106.059	-92.9203	-23.8844	-108.166	-150.072	-53.447	-75.2182	-126.69	-53.0128	-88.3854	-99.7979	-50.2114	-102.976	-193.813	-32.1174	-48.3305	-208.801	-34.7634	-14.3903	-206.127	0.491807	-31.7855	
13	0.108333	-186.648	29.8315	-13.1946	-175.229	51.2225	-38.002	-161.542	64.0619	-67.46	-146.938	68.6774	-88.4731	-174.1	16.5363	-97.7226	-159.677	22.6034	-121.303	-134.476	24.1458	-143.93	-157.227	-4.42551	-103.866	-128.668	-1.94918	-118.784	-99.4502	-1.83598	-127.168	-150.707	-30.765	-95.1502	-126.656	-29.6791	-105.18	-95.6764	-22.8325	-109.293	-153.279	-51.1024	-81.324	-128.785	-55.912	-96.2239	-109.127	-53.8526	-110.847	-193.897	-31.9769	-48.0735	-210.184	-33.881	-17.5483	-208.687	1.38347	-30.2549	
14	0.116667	-185.916	31.4548	-12.473	-174.07	50.7135	-33.1014	-160.088	64.6885	-63.6192	-146.752	66.8227	-85.6954	-161.641	19.4808	-97.5306	-138.851	22.7665	-112.679	-108.336	22.9915	-120.989	-158.442	-1.90264	-100.687	-128.786	-0.904632	-116.973	-93.0555	-4.14386	-126.947	-157.274	-28.1044	-97.704	-132.78	-28.6131	-113.818	-105.144	-23.1357	-121.365	-159.503	-54.5935	-82.377	-143.29	-58.6145	-99.4089	-121.861	-61.129	-122.149	-196.537	-33.9675	-46.1284	-208.077	-31.4324	-17.8151	-206.039	2.23688	-32.0005	
